PathFileType  4	(X/Y/Z) C:\Users\antoi\Documents\MyRepositories\mobilecap\ResultsAnalysis
DataRate	CameraRate	NumFrames	NumMarkers	Units	OrigDataRate	OrigDataStartFrame	OrigNumFrames
100.0	100.0	6	51	mm	100.0	106	141
Frame#	Time	r_knee			r_shank_antsup			r_ankle			r_calc			r_5meta			r_toe			L_knee			L_shank_antsup			L_ankle			L_calc			L_5meta			L_toe			r_sh2			r_sh3			r_sh4			L_sh2			L_sh3			r_thigh1			r_thigh2			r_thigh3			r_thigh4			r_thigh5			L_thigh1			L_thigh2			L_thigh3			L_thigh4			r.ASIS			r.PSIS			L.ASIS			L.PSIS			C7			R_Shoulder			L_Shoulder			R_Sternum			L_Sternum			R_humerus			R_elbow_med			R_elbow_lat			R_forearm			R_wrist_radius			R_wrist_ulna			L_humerus			L_elbow_med			L_elbow_lat			L_forearm			L_wrist_radius			L_wrist_ulna			R_HJC			L_HJC			R_HJC_reg			L_HJC_reg			
		X1	Y1	Z1	X2	Y2	Z2	X3	Y3	Z3	X4	Y4	Z4	X5	Y5	Z5	X6	Y6	Z6	X7	Y7	Z7	X8	Y8	Z8	X9	Y9	Z9	X10	Y10	Z10	X11	Y11	Z11	X12	Y12	Z12	X13	Y13	Z13	X14	Y14	Z14	X15	Y15	Z15	X16	Y16	Z16	X17	Y17	Z17	X18	Y18	Z18	X19	Y19	Z19	X20	Y20	Z20	X21	Y21	Z21	X22	Y22	Z22	X23	Y23	Z23	X24	Y24	Z24	X25	Y25	Z25	X26	Y26	Z26	X27	Y27	Z27	X28	Y28	Z28	X29	Y29	Z29	X30	Y30	Z30	X31	Y31	Z31	X32	Y32	Z32	X33	Y33	Z33	X34	Y34	Z34	X35	Y35	Z35	X36	Y36	Z36	X37	Y37	Z37	X38	Y38	Z38	X39	Y39	Z39	X40	Y40	Z40	X41	Y41	Z41	X42	Y42	Z42	X43	Y43	Z43	X44	Y44	Z44	X45	Y45	Z45	X46	Y46	Z46	X47	Y47	Z47	X48	Y48	Z48	X49	Y49	Z49	X50	Y50	Z50	X51	Y51	Z51	

106	1.05000000	1237.95176	547.51952	-55.87378	1281.02206	480.65981	-44.79845	1350.20409	119.41467	-72.55271	1307.88941	57.71076	-118.21887	1512.90591	92.30884	-47.88156	1532.76680	135.02421	-103.13661	976.51658	528.24298	-319.41285	981.22521	403.25036	-319.98095	852.85020	98.80414	-274.83224	778.27120	57.67063	-239.72326	1022.05039	56.49611	-237.85748	1004.23002	30.23536	-305.12417	1313.08182	372.79737	-37.38136	1209.36929	459.95989	-29.28171	1232.04278	348.69160	-33.66817	896.17612	431.22730	-338.88909	868.90680	313.55644	-330.91263	1186.54835	861.81083	-20.92512	1235.61367	765.89912	-35.72270	1198.23898	716.51074	-6.88398	1085.63081	807.41483	-16.86865	1143.22350	709.44423	-19.92993	1093.99637	840.70425	-367.43104	1084.59871	705.04718	-350.07349	975.27480	849.64806	-365.96660	974.23228	706.62635	-353.95537	1155.81441	1038.67008	-77.63378	956.40767	1078.07117	-134.75503	1134.66136	1032.90344	-336.63753	945.78932	1084.55167	-237.61316	956.77179	1586.58997	-218.05097	1016.57468	1541.49120	-38.64971	1035.58329	1547.66659	-376.32613	1106.21028	1513.53138	-179.62458	1109.31610	1510.63536	-233.54680	973.97243	1275.84361	58.86642	928.46172	1186.49278	-10.39109	943.41152	1194.91218	72.49818	989.89827	1043.52914	100.24746	1016.00957	929.72446	98.54715	974.95229	937.76448	115.49996	1124.44364	1313.97013	-478.23760	1108.99054	1199.90078	-436.42950	1142.39361	1224.84175	-494.57831	1296.10220	1139.75087	-482.90399	1381.99939	1097.87890	-453.97058	1365.52502	1068.10788	-474.92349	1069.48808	960.60193	-74.82670	1049.51301	959.18081	-304.31854	1081.87806	952.86201	-112.06141	1064.29443	963.59303	-282.37563	
107	1.06000000	1245.14898	542.90446	-54.98538	1291.24843	478.51382	-44.57523	1378.18443	120.46711	-73.64293	1339.16351	57.21454	-119.78173	1541.71961	101.43172	-47.08654	1559.82188	144.97631	-101.91774	984.70295	527.02466	-319.08838	987.60932	401.80397	-319.77044	853.41104	99.77137	-274.75498	778.50200	58.38456	-239.59696	1022.03713	56.30714	-237.68310	1004.29923	30.18721	-305.20487	1328.55080	372.20340	-37.43443	1220.73009	454.15315	-29.10163	1248.87364	344.30195	-34.16206	903.11823	431.42207	-339.07074	873.63336	314.07083	-330.89648	1197.27827	857.57425	-20.70886	1244.68396	760.52152	-34.99364	1206.32944	712.01343	-5.83029	1095.29133	805.01887	-16.74083	1150.99346	705.41253	-19.55838	1104.71560	838.70563	-367.39552	1094.44225	703.11076	-350.25403	986.05802	848.55363	-365.36717	983.99668	705.56878	-353.63694	1169.48538	1036.31593	-77.48936	969.92706	1076.30745	-133.91444	1147.06623	1030.61844	-336.53919	958.91619	1082.87354	-236.69037	969.56526	1584.64992	-217.12931	1029.33008	1539.34479	-37.68875	1048.56113	1545.81118	-375.45555	1119.09435	1511.65831	-178.69046	1122.19984	1508.79198	-232.63587	985.53514	1273.72181	59.42565	940.15044	1184.84903	-10.27646	954.81172	1192.84695	72.62769	1000.21135	1041.19910	100.64494	1025.65053	927.23203	99.13869	984.54735	935.57384	115.81700	1137.77205	1312.85201	-477.86831	1123.04786	1198.55380	-436.57265	1156.44578	1223.89733	-494.47673	1311.68150	1141.48562	-481.81427	1397.96336	1101.27331	-451.95585	1382.25116	1071.14296	-473.00972	1082.88437	958.51487	-74.41750	1061.91566	957.15686	-303.81864	1095.08387	950.61142	-111.68489	1076.83361	961.49420	-282.02094	
108	1.07000000	1252.90783	538.65739	-54.08662	1301.55707	476.57360	-44.34483	1403.51144	121.79207	-74.81717	1367.39796	57.16029	-121.37595	1567.34584	109.89393	-46.37820	1583.88717	154.19858	-100.77295	993.24797	525.75472	-318.68527	994.33507	400.32302	-319.59461	854.15158	100.91570	-274.73757	778.79007	59.49228	-239.50800	1022.06120	56.08029	-237.50233	1004.38925	30.11775	-305.30576	1343.31322	371.71668	-37.46635	1232.20010	449.06877	-28.73898	1264.95139	340.61221	-34.41041	910.46059	431.63743	-339.25165	878.67517	314.69523	-330.91041	1208.33026	853.67619	-20.59583	1254.24391	755.59741	-34.34830	1215.06161	707.98116	-4.63209	1105.41116	802.78969	-16.32251	1159.40531	701.67428	-18.90825	1115.70156	836.74260	-367.31029	1104.66640	701.19120	-350.46563	997.10192	847.39775	-364.67357	994.14800	704.47747	-353.32169	1183.27934	1033.88907	-77.37858	983.51373	1074.53119	-132.95179	1159.57663	1028.35322	-336.45036	972.12892	1081.11418	-235.66522	982.41756	1582.70088	-216.13188	1042.12907	1537.16418	-36.65072	1061.53482	1543.93797	-374.50914	1132.03638	1509.79346	-177.69154	1135.14331	1506.96208	-231.66816	997.27704	1271.56845	60.07645	952.12898	1182.98091	-10.13260	966.41106	1190.70987	72.84649	1010.87519	1038.85384	101.10730	1035.75818	924.76081	99.77383	994.60377	933.33221	116.16739	1150.95293	1311.58696	-477.41519	1136.87696	1197.06916	-436.58371	1170.23116	1222.77378	-494.30245	1326.80997	1142.85758	-480.60201	1413.41486	1104.18137	-449.89505	1398.44055	1073.74470	-471.08902	1096.42662	956.35905	-73.99786	1074.39307	955.12845	-303.29939	1108.34005	948.44222	-111.28583	1089.45734	959.36086	-281.63894	
109	1.08000000	1261.56619	534.95848	-53.24674	1312.16480	474.81813	-44.09866	1425.84908	122.93117	-75.89504	1392.12041	57.04723	-122.73503	1589.64336	116.89778	-45.90981	1604.82378	161.86863	-99.93262	1002.21415	524.45985	-318.24993	1001.40406	398.84834	-319.46444	855.11187	102.26814	-274.79731	779.15506	61.10669	-239.48524	1022.13224	55.81313	-237.34329	1004.50039	30.02972	-305.42822	1357.42172	371.19065	-37.44795	1243.86720	444.83917	-28.21913	1280.20230	337.58643	-34.39568	918.20795	431.89105	-339.39382	884.04226	315.46585	-330.96775	1219.85174	850.29361	-20.57962	1264.51124	751.37601	-33.87087	1224.74480	704.56688	-3.42669	1116.20653	800.78908	-15.64171	1168.79689	698.48438	-18.01028	1127.02592	834.83539	-367.12103	1115.32144	699.31404	-350.63556	1008.45764	846.20928	-363.93891	1004.74694	703.36053	-352.99832	1197.11607	1031.46046	-77.24626	997.10039	1072.78276	-131.90003	1172.22794	1026.14374	-336.32847	985.40595	1079.29762	-234.57912	995.34129	1580.78113	-215.05502	1054.97391	1534.97782	-35.53874	1074.48281	1542.08866	-373.49761	1145.03693	1507.96762	-176.63755	1148.15680	1505.18480	-230.65159	1009.22825	1269.40273	60.78877	964.38432	1180.95657	-9.92155	978.21596	1188.53099	73.15539	1021.89768	1036.51722	101.63411	1046.33835	922.32798	100.44598	1005.12934	931.06442	116.55074	1163.99360	1310.20805	-476.87288	1150.48832	1195.47028	-436.43374	1183.74741	1221.49512	-494.03606	1341.46123	1143.84583	-479.25580	1428.36420	1106.58613	-447.80813	1414.09137	1075.89378	-469.17540	1110.04180	954.19474	-73.54070	1086.97166	953.12517	-302.74318	1121.58896	946.41415	-110.83138	1102.18429	957.22526	-281.20872	
110	1.09000000	1271.41728	531.94969	-52.52042	1323.29097	473.20023	-43.83740	1444.89828	123.44406	-76.70902	1412.88553	56.44865	-123.63577	1608.51033	121.71872	-45.80818	1622.54979	167.19244	-99.59712	1011.68094	523.16508	-317.84855	1008.82381	397.41899	-319.39261	856.30922	103.86573	-274.95140	779.62889	63.30703	-239.55749	1022.23464	55.51431	-237.22946	1004.63669	29.92504	-305.57056	1370.94291	370.47194	-37.36859	1255.81142	441.55278	-27.57451	1294.58118	335.16355	-34.11355	926.36517	432.20833	-339.48822	889.74505	316.41455	-331.08332	1231.97656	847.57053	-20.63719	1275.66324	748.05487	-33.63429	1235.63049	701.88465	-2.36663	1127.85419	799.07555	-14.77426	1179.44330	696.03889	-16.93037	1138.74718	833.00080	-366.77816	1126.44697	697.50171	-350.69184	1020.16516	845.01216	-363.21881	1015.83832	702.21743	-352.65310	1210.91924	1029.12941	-77.01445	1010.63491	1071.10124	-130.80965	1185.04640	1024.01766	-336.12124	998.73349	1077.45431	-233.48568	1008.34868	1578.93060	-213.89695	1067.87109	1532.82119	-34.35924	1087.40805	1540.30544	-372.43308	1158.09932	1506.21330	-175.53649	1161.25259	1503.49627	-229.59083	1021.40764	1267.25021	61.53502	976.89977	1178.85586	-9.61537	990.24322	1186.34773	73.55205	1033.29294	1034.21758	102.21947	1057.40097	919.95747	101.14564	1016.13361	928.80145	116.96576	1176.90014	1308.75743	-476.23404	1163.88199	1193.79366	-436.10020	1197.00599	1220.10482	-493.64977	1355.62791	1144.44076	-477.77811	1442.82502	1108.47280	-445.71292	1429.19932	1077.57245	-467.28049	1123.66032	952.10474	-73.00503	1099.68881	951.16896	-302.11958	1134.79411	944.57205	-110.27215	1115.04018	955.11844	-280.70014	
111	1.10000000	1282.62854	529.69768	-51.94581	1335.09211	471.65764	-43.58032	1460.46831	122.99273	-77.14047	1429.38561	55.09565	-123.94505	1623.92837	123.82695	-46.15587	1637.08339	169.56193	-99.89533	1021.72700	521.88984	-317.54084	1016.61667	396.06568	-319.39007	857.74942	105.74932	-275.21209	780.25653	66.13604	-239.74704	1022.32563	55.19391	-237.17604	1004.80233	29.80316	-305.72942	1383.94084	369.42762	-37.24875	1268.08545	439.22648	-26.82663	1308.07552	333.26093	-33.56044	934.94596	432.61470	-339.55327	895.80389	317.56724	-331.26804	1244.80639	845.59366	-20.73800	1287.81583	745.74015	-33.68566	1247.86087	699.98590	-1.59191	1140.46594	797.70249	-13.81589	1191.50368	694.41680	-15.77298	1150.89776	831.25335	-366.25029	1138.06892	695.77328	-350.57806	1032.25038	843.81943	-362.55484	1027.44489	701.04629	-352.27414	1224.64952	1027.01513	-76.59915	1024.10311	1069.51652	-129.74022	1198.05220	1021.99441	-335.77511	1012.11223	1075.61958	-232.43852	1021.44471	1577.18859	-212.65721	1080.83069	1530.73514	-33.12017	1100.33145	1538.62923	-371.32221	1171.22665	1504.56026	-174.39139	1174.43900	1501.92550	-228.48556	1033.82156	1265.14360	62.29954	989.66256	1176.75603	-9.20429	1002.51545	1184.20186	74.03265	1045.07851	1031.98790	102.85437	1068.96001	917.68105	101.86298	1027.62777	926.57874	117.41148	1189.67588	1307.28233	-475.48971	1177.04649	1192.08867	-435.56890	1210.02227	1218.65742	-493.11546	1369.32508	1144.64816	-476.18887	1456.80974	1109.82787	-443.62654	1443.76167	1078.76608	-465.41260	1137.24694	950.18588	-72.34301	1112.59737	949.27360	-301.38971	1147.97336	942.93639	-109.55146	1128.06448	953.07125	-280.07585	
